<?xml version="1.0" encoding="utf-8"?>
<!-- Generator: Adobe Illustrator 19.0.0, SVG Export Plug-In . SVG Version: 6.00 Build 0)  -->
<svg version="1.1" id="Layer_1" xmlns="http://www.w3.org/2000/svg" xmlns:xlink="http://www.w3.org/1999/xlink" x="0px" y="0px"
	 viewBox="0 0 1920 563" style="enable-background:new 0 0 1920 563;" xml:space="preserve">
<style type="text/css">
	.st0{opacity:0.7;fill:url(#XMLID_10_);}
	.st1{opacity:0.7;fill:url(#XMLID_11_);}
</style>
<g id="XMLID_282_">
	<linearGradient id="XMLID_10_" gradientUnits="userSpaceOnUse" x1="0" y1="281.565" x2="1920" y2="281.565">
		<stop  offset="0" style="stop-color:#3964d0"/>
		<stop  offset="1" style="stop-color:#2dc1c9"/>
	</linearGradient>
	<path id="XMLID_1012_" class="st0" d="M1535.9,78.3c-9.1-1.5-18.2-2.9-27.3-4.3c-232.8-36.2-467.7-54.1-703.1-66.2
		C631.1-1.2,456.6-5.5,282.4,12.1c-78,7.9-154.9,19.7-229.2,40.7C35.3,57.9,17.6,63.5,0,69.7v493.4h1920V174.6
		C1796.3,128.1,1667.1,99.6,1535.9,78.3z"/>
	<linearGradient id="XMLID_11_" gradientUnits="userSpaceOnUse" x1="0" y1="306.2834" x2="1920" y2="306.2834">
		<stop  offset="0" style="stop-color:#3964d0"/>
		<stop  offset="1" style="stop-color:#2dc1c9"/>
	</linearGradient>
	<path id="XMLID_921_" class="st1" d="M1657.7,58c-49.8,4.9-99.5,10.3-149.1,16c-92.2,10.6-184.2,22.1-276.2,33.6
		c-225,28-450.5,40-676.3,13.5c-132.5-15.5-264.2-37.2-396.3-55.6c-35.4-4.9-70.9-9.5-106.4-12.6C35.5,51.3,17.8,50.1,0,49.4v20.3
		v493.4h1920V174.6V65.9C1833.5,52.9,1746,49.3,1657.7,58z"/>
</g>
</svg>
