<?xml version="1.0" encoding="utf-8"?>
<!-- Generator: Adobe Illustrator 19.0.0, SVG Export Plug-In . SVG Version: 6.00 Build 0)  -->
<svg version="1.1" id="Layer_1" xmlns="http://www.w3.org/2000/svg" xmlns:xlink="http://www.w3.org/1999/xlink" x="0px" y="0px"
	 viewBox="-245.3 -549.5 184.3 35.3" style="enable-background:new -245.3 -549.5 184.3 35.3;" xml:space="preserve">
<style type="text/css">
	.st0{fill:#FFFFFF;}
</style>
<g id="XMLID_3441_">
	<g id="XMLID_3453_">
		<path class="st0" d="M-221.2-540.7v19.2H-238v-4.8h12v-9.6h-19.2v-12h24.1v4.8h-19.2v2.4H-221.2z M-240.5-528.7h12v-4.8h-16.8
			v19.2h16.8v-4.8h-12V-528.7z M-226-514.2h4.8v-4.8h-4.8V-514.2z"/>
	</g>
	<g id="XMLID_3442_">
		<path class="st0" d="M-215.1-532l1.5-3.5c1.5,1,3.6,1.6,5.5,1.6c1.9,0,2.7-0.5,2.7-1.3c0-2.6-9.4-0.7-9.4-6.9c0-3,2.4-5.4,7.3-5.4
			c2.2,0,4.4,0.5,6,1.4l-1.4,3.5c-1.6-0.9-3.1-1.3-4.6-1.3c-2,0-2.7,0.7-2.7,1.5c0,2.5,9.4,0.6,9.4,6.7c0,2.9-2.4,5.4-7.3,5.4
			C-210.8-530.1-213.5-530.9-215.1-532z"/>
		<path class="st0" d="M-176.9-537.8v7.3h-4.5v-6.6c0-1.8-0.8-2.6-1.9-2.6c-1.3,0-2.3,0.9-2.3,2.9v6.4h-4.5v-6.6
			c0-1.8-0.7-2.6-1.9-2.6c-1.3,0-2.3,0.9-2.3,2.9v6.4h-4.5v-12.8h4.3v1.4c1-1,2.3-1.6,3.8-1.6c1.8,0,3.2,0.6,4.1,2
			c1-1.3,2.6-2,4.5-2C-179.1-543.5-176.9-541.8-176.9-537.8z"/>
		<path class="st0" d="M-162-537.6v7.1h-4.2v-1.7c-0.6,1.2-1.9,1.9-3.8,1.9c-3.1,0-4.8-1.7-4.8-4c0-2.4,1.7-3.8,5.7-3.8h2.6
			c-0.1-1.3-0.9-2-2.7-2c-1.2,0-2.6,0.4-3.5,1.1l-1.5-3.1c1.5-1,3.6-1.5,5.7-1.5C-164.4-543.5-162-541.7-162-537.6z M-166.5-534.6
			v-1.1h-1.9c-1.4,0-2,0.5-2,1.3c0,0.8,0.6,1.3,1.7,1.3C-167.8-533.1-166.9-533.6-166.5-534.6z"/>
		<path class="st0" d="M-150.6-543.5v4c-0.4,0-0.7-0.1-1-0.1c-1.8,0-3.1,0.9-3.1,3.2v5.9h-4.5v-12.8h4.3v1.5
			C-154-542.9-152.5-543.5-150.6-543.5z"/>
		<path class="st0" d="M-139.5-531c-0.8,0.5-1.9,0.7-3.1,0.7c-3.3,0-5.2-1.6-5.2-4.9v-4.3h-1.9v-3.4h1.9v-3.3h4.5v3.3h2.9v3.4h-2.9
			v4.3c0,0.9,0.5,1.5,1.4,1.5c0.5,0,1-0.1,1.4-0.4L-139.5-531z"/>
		<path class="st0" d="M-131.5-538.8c0-5,3.9-8.6,9.1-8.6c3.1,0,5.5,1.1,7.1,3.1l-3,2.7c-1-1.3-2.3-1.9-3.9-1.9
			c-2.7,0-4.6,1.9-4.6,4.7s1.9,4.7,4.6,4.7c1.6,0,2.9-0.7,3.9-1.9l3,2.7c-1.6,2-4.1,3.1-7.1,3.1
			C-127.7-530.1-131.5-533.7-131.5-538.8z"/>
		<path class="st0" d="M-99.7-537.8v7.3h-4.5v-6.6c0-1.8-0.8-2.6-2.1-2.6c-1.4,0-2.6,0.9-2.6,3v6.2h-4.5V-548h4.5v5.9
			c1-0.9,2.3-1.4,3.9-1.4C-102-543.5-99.7-541.8-99.7-537.8z"/>
		<path class="st0" d="M-84.9-537.6v7.1h-4.2v-1.7c-0.6,1.2-1.9,1.9-3.8,1.9c-3.1,0-4.8-1.7-4.8-4c0-2.4,1.7-3.8,5.7-3.8h2.6
			c-0.1-1.3-0.9-2-2.7-2c-1.2,0-2.6,0.4-3.5,1.1l-1.5-3.1c1.5-1,3.6-1.5,5.7-1.5C-87.3-543.5-84.9-541.7-84.9-537.6z M-89.4-534.6
			v-1.1h-1.9c-1.4,0-2,0.5-2,1.3c0,0.8,0.6,1.3,1.7,1.3C-90.6-533.1-89.7-533.6-89.4-534.6z"/>
		<path class="st0" d="M-82.5-547.1c0-1.3,1.1-2.4,2.7-2.4c1.7,0,2.7,1,2.7,2.3c0,1.4-1.1,2.5-2.7,2.5
			C-81.5-544.7-82.5-545.8-82.5-547.1z M-82-543.3h4.5v12.8H-82V-543.3z"/>
		<path class="st0" d="M-61-537.8v7.3h-4.5v-6.6c0-1.8-0.8-2.6-2.1-2.6c-1.4,0-2.6,0.9-2.6,3v6.2h-4.5v-12.8h4.3v1.4
			c1-1.1,2.5-1.6,4.1-1.6C-63.3-543.5-61-541.8-61-537.8z"/>
		<path class="st0" d="M-212.4-522.5h-3.1v-2.3h9v2.3h-3.1v7.8h-2.9V-522.5z"/>
		<path class="st0" d="M-197.3-516.9v2.2h-8.1v-10.1h7.9v2.2h-5.1v1.7h4.5v2.1h-4.5v1.8H-197.3z"/>
		<path class="st0" d="M-196.3-519.7c0-3.1,2.4-5.2,5.6-5.2c1.9,0,3.4,0.7,4.3,1.9l-1.8,1.6c-0.6-0.8-1.4-1.2-2.4-1.2
			c-1.7,0-2.8,1.2-2.8,2.9s1.2,2.9,2.8,2.9c1,0,1.7-0.4,2.4-1.2l1.8,1.6c-1,1.2-2.5,1.9-4.3,1.9
			C-193.9-514.5-196.3-516.7-196.3-519.7z"/>
		<path class="st0" d="M-175.5-524.8v10.1h-2.9v-3.9h-3.9v3.9h-2.9v-10.1h2.9v3.8h3.9v-3.8H-175.5z"/>
		<path class="st0" d="M-163.9-524.8v10.1h-2.4l-4.5-5.4v5.4h-2.8v-10.1h2.4l4.5,5.4v-5.4H-163.9z"/>
		<path class="st0" d="M-162.4-519.7c0-3,2.4-5.2,5.6-5.2c3.2,0,5.6,2.2,5.6,5.2s-2.4,5.2-5.6,5.2
			C-160-514.5-162.4-516.7-162.4-519.7z M-154.1-519.7c0-1.7-1.2-2.9-2.7-2.9s-2.7,1.1-2.7,2.9s1.2,2.9,2.7,2.9
			S-154.1-518-154.1-519.7z"/>
		<path class="st0" d="M-149.7-524.8h2.9v7.8h4.8v2.3h-7.7V-524.8z"/>
		<path class="st0" d="M-141.6-519.7c0-3,2.4-5.2,5.6-5.2c3.2,0,5.6,2.2,5.6,5.2s-2.4,5.2-5.6,5.2
			C-139.2-514.5-141.6-516.7-141.6-519.7z M-133.2-519.7c0-1.7-1.2-2.9-2.7-2.9s-2.7,1.1-2.7,2.9s1.2,2.9,2.7,2.9
			S-133.2-518-133.2-519.7z"/>
		<path class="st0" d="M-122.1-519.9h2.5v4.2c-1.2,0.8-2.8,1.3-4.2,1.3c-3.2,0-5.6-2.2-5.6-5.2s2.4-5.2,5.6-5.2
			c1.9,0,3.4,0.6,4.4,1.8l-1.8,1.6c-0.7-0.8-1.5-1.1-2.5-1.1c-1.7,0-2.9,1.1-2.9,2.9c0,1.7,1.2,2.9,2.9,2.9c0.5,0,1-0.1,1.5-0.3
			V-519.9z"/>
		<path class="st0" d="M-112.3-518.3v3.6h-2.9v-3.7l-3.9-6.4h3l2.4,4l2.4-4h2.8L-112.3-518.3z"/>
	</g>
</g>
</svg>
